<svg width="58" height="41" viewBox="0 0 58 41" fill="none" xmlns="http://www.w3.org/2000/svg">
<path d="M11.5202 32.1186C11.5202 31.377 11.3401 30.6836 10.981 30.0402C10.6227 29.3977 10.1309 28.8869 9.50729 28.5097C8.88194 28.1324 8.19203 27.9438 7.43667 27.9438C6.66923 27.9438 5.97158 28.1264 5.34018 28.4907C4.70887 28.8559 4.21102 29.3572 3.84664 29.9946C3.48145 30.6311 3.29882 31.346 3.29882 32.1367C3.29882 32.9041 3.47799 33.6036 3.83801 34.2341C4.19546 34.8654 4.69412 35.3598 5.33156 35.719C5.96892 36.0781 6.67696 36.2573 7.45642 36.2573C8.19799 36.2573 8.87847 36.0713 9.49601 35.7001C10.1153 35.3288 10.608 34.8284 10.9714 34.1971C11.3376 33.5665 11.5202 32.8731 11.5202 32.1186ZM11.4082 35.4036C10.9887 36.0341 10.4314 36.5294 9.73804 36.8877C9.04466 37.2469 8.28496 37.426 7.45642 37.426C6.45387 37.426 5.53482 37.1909 4.70016 36.7215C3.86469 36.2512 3.20662 35.6103 2.72344 34.8007C2.24203 33.9903 2 33.0841 2 32.0824C2 31.0918 2.24808 30.1917 2.74335 29.3821C3.23684 28.5717 3.90265 27.9343 4.7382 27.47C5.57278 27.0066 6.47894 26.7749 7.4565 26.7749C8.29713 26.7749 9.06457 26.9541 9.75625 27.3132C10.4496 27.6715 11.0008 28.1728 11.4082 28.8154H11.4461V27.0342H12.745V37.1848H11.4461V35.4036H11.4082Z" fill="black" stroke="black" stroke-width="0.2" stroke-miterlimit="10"/>
<path d="M19.5736 27.9434C18.6089 27.9434 17.838 28.2707 17.2626 28.9271C16.6881 29.5825 16.4005 30.418 16.4005 31.4318V37.1846H15.1016V27.0339H16.4005V28.3328H16.4367C16.7588 27.8384 17.1955 27.4551 17.7468 27.1829C18.2963 26.9107 18.9 26.7747 19.5555 26.7747C20.4711 26.7747 21.2652 26.9728 21.9397 27.3681C22.6132 27.7643 23.13 28.3208 23.4891 29.0382C23.8475 29.7566 24.0274 30.5851 24.0274 31.5249V37.1846H22.7285V31.5249C22.7285 30.7824 22.5924 30.1425 22.3202 29.6041C22.0472 29.0658 21.6708 28.6549 21.1876 28.3698C20.7062 28.0855 20.167 27.9434 19.5736 27.9434Z" fill="black" stroke="black" stroke-width="0.2" stroke-miterlimit="10"/>
<path d="M35.4577 32.1186C35.4577 31.377 35.2776 30.6836 34.9203 30.0402C34.5603 29.3977 34.0676 28.887 33.444 28.5097C32.8195 28.1324 32.1296 27.9438 31.3759 27.9438C30.5964 27.9438 29.891 28.1265 29.2597 28.4908C28.6284 28.8559 28.1331 29.3573 27.7757 29.9946C27.4156 30.6312 27.2365 31.3461 27.2365 32.1367C27.2365 32.9042 27.4156 33.601 27.7757 34.2255C28.1331 34.8499 28.6284 35.3443 29.2597 35.7095C29.891 36.0747 30.6025 36.2573 31.3941 36.2573C32.1356 36.2573 32.8161 36.0713 33.4354 35.7001C34.053 35.3288 34.5457 34.8284 34.9092 34.1971C35.2751 33.5665 35.4577 32.8731 35.4577 32.1186ZM35.3457 35.4036C34.9125 36.0471 34.3475 36.544 33.6481 36.8972C32.9486 37.2495 32.1967 37.4261 31.394 37.4261C30.3906 37.4261 29.4724 37.1909 28.6377 36.7215C27.8023 36.2512 27.1442 35.6104 26.661 34.8007C26.1786 33.9902 25.9375 33.0841 25.9375 32.0824C25.9375 31.0919 26.1856 30.1918 26.6808 29.3822C27.1743 28.5717 27.8402 27.9343 28.6757 27.47C29.5103 27.0066 30.4164 26.7749 31.394 26.7749C32.1847 26.7749 32.934 26.9506 33.6394 27.3029C34.344 27.6561 34.9125 28.147 35.3457 28.7784H35.3835V23.4529H36.6816V37.1849H35.3835V35.4037L35.3457 35.4036Z" fill="black" stroke="black" stroke-width="0.2" stroke-miterlimit="10"/>
<path d="M48.2245 32.1186C48.2245 31.377 48.0445 30.6836 47.6853 30.0402C47.327 29.3977 46.8352 28.8869 46.2107 28.5097C45.5863 28.1324 44.8964 27.9438 44.141 27.9438C43.3736 27.9438 42.6759 28.1264 42.0445 28.4907C41.4132 28.8559 40.9154 29.3572 40.551 29.9946C40.1858 30.6311 40.0032 31.346 40.0032 32.1367C40.0032 32.9041 40.1823 33.6036 40.5424 34.2341C40.8998 34.8654 41.3985 35.3598 42.0359 35.719C42.6733 36.0781 43.3813 36.2573 44.16 36.2573C44.9024 36.2573 45.5828 36.0713 46.2004 35.7001C46.8197 35.3288 47.3124 34.8284 47.6758 34.1971C48.042 33.5665 48.2245 32.8731 48.2245 32.1186ZM48.1126 35.4036C47.6931 36.0341 47.1358 36.5294 46.4425 36.8877C45.7491 37.2469 44.9894 37.426 44.16 37.426C43.1574 37.426 42.2392 37.1909 41.4046 36.7215C40.5691 36.2512 39.911 35.6103 39.4279 34.8007C38.9464 33.9902 38.7043 33.084 38.7043 32.0824C38.7043 31.0918 38.9524 30.1918 39.4477 29.3821C39.9412 28.5717 40.607 27.9343 41.4425 27.47C42.2771 27.0066 43.1833 26.7749 44.16 26.7749C45.0015 26.7749 45.769 26.9541 46.4606 27.3132C47.154 27.6715 47.7052 28.1728 48.1126 28.8154H48.1505V27.0342H49.4494V37.1848H48.1505V35.4036H48.1126Z" fill="black" stroke="black" stroke-width="0.2" stroke-miterlimit="10"/>
<path d="M53.1052 27.0343V28.4994H53.1414C53.3774 27.956 53.7133 27.5451 54.1535 27.266C54.5927 26.9878 55.2069 26.8241 56.0001 26.7742V28.1471H55.982C55.0656 28.2341 54.3567 28.5528 53.8572 29.1032C53.3559 29.6536 53.1053 30.3495 53.1053 31.191V37.185H51.8064V27.0343H53.1052Z" fill="black" stroke="black" stroke-width="0.2" stroke-miterlimit="10"/>
<path d="M29.5369 1.57031C28.0798 1.57031 27.3403 2.23604 26.6209 3.31242C25.9015 4.38879 21.1539 12.0603 20.429 13.1037C20.429 13.1037 19.3776 12.4943 18.1914 12.2746C16.4869 11.9589 14.9429 12.115 14.9429 12.115C14.9429 12.115 15.5555 13.4607 16.9393 15.1796C18.1111 16.6351 19.9283 18.0735 21.8342 19.0804C24.4188 20.446 27.5197 21.4214 31.437 21.4235C34.5734 21.4251 37.0543 20.3151 37.872 19.8544C39.6119 18.8742 39.8538 18.2238 39.8538 18.2238C39.8538 18.2238 36.4728 20.0671 33.3482 20.1769C29.9163 20.2976 28.4425 19.6595 26.8571 18.7326C25.4293 17.8979 24.3383 16.3823 23.2766 15.218C22.6571 14.5387 21.6145 13.8012 21.6145 13.8012C21.6145 13.8012 24.2312 12.8771 25.2023 12.3222C26.2274 11.7364 27.1707 10.8593 27.7418 10.0392C28.366 9.14297 28.6424 8.03661 29.6467 8.03661C30.6597 8.03661 30.9709 8.97968 31.6958 9.8473C32.5385 10.856 33.5238 11.4398 34.743 11.9487C35.9984 12.4727 38.0724 12.916 38.0724 12.916C38.0724 12.916 36.6224 13.3409 35.0053 14.143C32.7105 15.2812 32.1205 16.1568 29.2185 16.1626C28.0873 16.1648 27.0219 15.8715 26.2641 15.542C25.5062 15.2126 24.5397 14.6963 24.5397 14.6963C24.5397 14.6963 25.8266 16.1919 26.5131 16.7154C27.7652 17.6704 29.2918 18.5812 32.4257 18.5679C35.0067 18.5569 37.7621 17.5461 39.0265 16.7227C41.6294 15.0277 42.7003 12.9775 43.0573 11.9945C43.0573 11.9945 41.6991 12.0732 40.8204 12.2343C39.8873 12.4053 38.7752 12.7033 38.7752 12.7033C38.7752 12.7033 33.0691 4.27829 32.3999 3.30871C31.6822 2.26901 30.8549 1.57031 29.5369 1.57031Z" fill="black"/>
</svg>
