<svg width="27" height="27" viewBox="0 0 27 27" fill="none" xmlns="http://www.w3.org/2000/svg">
<mask id="mask0_1823_24" style="mask-type:alpha" maskUnits="userSpaceOnUse" x="0" y="0" width="27" height="27">
<rect x="0.866089" y="0.865601" width="25.268" height="25.268" fill="#898989"/>
</mask>
<g mask="url(#mask0_1823_24)">
<path d="M13.5001 24.028C13.2018 24.028 12.9518 23.9271 12.75 23.7253C12.5482 23.5235 12.4473 23.2735 12.4473 22.9752V6.9984L8.34126 11.0781C8.14824 11.2712 7.90696 11.3721 7.61743 11.3808C7.3279 11.3896 7.07786 11.2887 6.86729 11.0781C6.67427 10.8851 6.57776 10.6395 6.57776 10.3412C6.57776 10.0429 6.67427 9.79719 6.86729 9.60417L12.7632 3.70829C12.8684 3.60301 12.9825 3.52843 13.1053 3.48456C13.2282 3.4407 13.3598 3.41876 13.5001 3.41876C13.6405 3.41876 13.7721 3.4407 13.895 3.48456C14.0178 3.52843 14.1318 3.60301 14.2371 3.70829L20.133 9.60417C20.326 9.79719 20.4225 10.0385 20.4225 10.328C20.4225 10.6175 20.326 10.8676 20.133 11.0781C19.9224 11.2887 19.6724 11.394 19.3829 11.394C19.0933 11.394 18.8433 11.2887 18.6327 11.0781L14.553 6.9984V22.9752C14.553 23.2735 14.4521 23.5235 14.2503 23.7253C14.0485 23.9271 13.7985 24.028 13.5001 24.028Z" fill="#AAAAAA"/>
</g>
</svg>
